<mxfile host="Electron" modified="2023-12-24T17:58:38.325Z" agent="Mozilla/5.0 (Windows NT 10.0; Win64; x64) AppleWebKit/537.36 (KHTML, like Gecko) draw.io/22.1.11 Chrome/114.0.5735.289 Electron/25.9.8 Safari/537.36" etag="Dz8eYnQnZ4Mc0JOpU7sY" version="22.1.11" type="device">
  <diagram name="Page-1" id="edf60f1a-56cd-e834-aa8a-f176f3a09ee4">
    <mxGraphModel dx="1036" dy="606" grid="1" gridSize="10" guides="1" tooltips="1" connect="1" arrows="1" fold="1" page="1" pageScale="1" pageWidth="1169" pageHeight="827" background="none" math="0" shadow="0">
      <root>
        <mxCell id="0" />
        <mxCell id="1" parent="0" />
        <mxCell id="ee3Hf3BzdbRgXfLqMHV_-18" style="edgeStyle=orthogonalEdgeStyle;rounded=0;orthogonalLoop=1;jettySize=auto;html=1;exitX=0.5;exitY=1;exitDx=0;exitDy=0;entryX=0.5;entryY=0;entryDx=0;entryDy=0;" parent="1" source="ee3Hf3BzdbRgXfLqMHV_-14" target="ee3Hf3BzdbRgXfLqMHV_-16" edge="1">
          <mxGeometry relative="1" as="geometry" />
        </mxCell>
        <mxCell id="ee3Hf3BzdbRgXfLqMHV_-14" value="for each report type" style="rounded=0;whiteSpace=wrap;html=1;" parent="1" vertex="1">
          <mxGeometry x="170" y="160" width="120" height="40" as="geometry" />
        </mxCell>
        <mxCell id="ee3Hf3BzdbRgXfLqMHV_-25" style="edgeStyle=orthogonalEdgeStyle;rounded=0;orthogonalLoop=1;jettySize=auto;html=1;exitX=1;exitY=0.5;exitDx=0;exitDy=0;entryX=0.5;entryY=1;entryDx=0;entryDy=0;" parent="1" source="ee3Hf3BzdbRgXfLqMHV_-16" target="06SwiOH1XrLOU_39ar2P-4" edge="1">
          <mxGeometry relative="1" as="geometry">
            <mxPoint x="765" y="210.0000000000001" as="targetPoint" />
          </mxGeometry>
        </mxCell>
        <mxCell id="ee3Hf3BzdbRgXfLqMHV_-29" value="No" style="edgeLabel;html=1;align=center;verticalAlign=middle;resizable=0;points=[];" parent="ee3Hf3BzdbRgXfLqMHV_-25" vertex="1" connectable="0">
          <mxGeometry x="-0.8512" y="1" relative="1" as="geometry">
            <mxPoint as="offset" />
          </mxGeometry>
        </mxCell>
        <mxCell id="oFhDvv9RlIDCHvoSyQMo-15" style="edgeStyle=orthogonalEdgeStyle;rounded=0;orthogonalLoop=1;jettySize=auto;html=1;exitX=0.5;exitY=1;exitDx=0;exitDy=0;entryX=0.5;entryY=0;entryDx=0;entryDy=0;" parent="1" source="ee3Hf3BzdbRgXfLqMHV_-16" target="06SwiOH1XrLOU_39ar2P-2" edge="1">
          <mxGeometry relative="1" as="geometry">
            <mxPoint x="240" y="370" as="targetPoint" />
          </mxGeometry>
        </mxCell>
        <mxCell id="oFhDvv9RlIDCHvoSyQMo-27" value="Yes" style="edgeLabel;html=1;align=center;verticalAlign=middle;resizable=0;points=[];" parent="oFhDvv9RlIDCHvoSyQMo-15" vertex="1" connectable="0">
          <mxGeometry x="-0.8717" relative="1" as="geometry">
            <mxPoint y="7" as="offset" />
          </mxGeometry>
        </mxCell>
        <mxCell id="ee3Hf3BzdbRgXfLqMHV_-16" value="if still have report type" style="rhombus;whiteSpace=wrap;html=1;" parent="1" vertex="1">
          <mxGeometry x="187.5" y="230" width="85" height="80" as="geometry" />
        </mxCell>
        <mxCell id="ee3Hf3BzdbRgXfLqMHV_-21" style="edgeStyle=orthogonalEdgeStyle;rounded=0;orthogonalLoop=1;jettySize=auto;html=1;exitX=0.5;exitY=1;exitDx=0;exitDy=0;entryX=0.497;entryY=-0.049;entryDx=0;entryDy=0;entryPerimeter=0;" parent="1" edge="1">
          <mxGeometry relative="1" as="geometry">
            <mxPoint x="229.99999999999977" y="460" as="sourcePoint" />
          </mxGeometry>
        </mxCell>
        <mxCell id="ee3Hf3BzdbRgXfLqMHV_-22" value="No" style="edgeLabel;html=1;align=center;verticalAlign=middle;resizable=0;points=[];" parent="ee3Hf3BzdbRgXfLqMHV_-21" vertex="1" connectable="0">
          <mxGeometry x="-0.2904" y="2" relative="1" as="geometry">
            <mxPoint as="offset" />
          </mxGeometry>
        </mxCell>
        <mxCell id="ee3Hf3BzdbRgXfLqMHV_-33" style="edgeStyle=orthogonalEdgeStyle;rounded=0;orthogonalLoop=1;jettySize=auto;html=1;exitX=0;exitY=0.5;exitDx=0;exitDy=0;entryX=1;entryY=0.5;entryDx=0;entryDy=0;" parent="1" source="ee3Hf3BzdbRgXfLqMHV_-31" target="ee3Hf3BzdbRgXfLqMHV_-32" edge="1">
          <mxGeometry relative="1" as="geometry" />
        </mxCell>
        <mxCell id="ee3Hf3BzdbRgXfLqMHV_-31" value="Request the crawler to refresh the list of publicly traded company ticker symbols" style="ellipse;whiteSpace=wrap;html=1;" parent="1" vertex="1">
          <mxGeometry x="807" y="40" width="200" height="80" as="geometry" />
        </mxCell>
        <mxCell id="06SwiOH1XrLOU_39ar2P-6" style="edgeStyle=orthogonalEdgeStyle;rounded=0;orthogonalLoop=1;jettySize=auto;html=1;exitX=0;exitY=0.5;exitDx=0;exitDy=0;entryX=1;entryY=0.5;entryDx=0;entryDy=0;" edge="1" parent="1" source="ee3Hf3BzdbRgXfLqMHV_-32" target="06SwiOH1XrLOU_39ar2P-4">
          <mxGeometry relative="1" as="geometry" />
        </mxCell>
        <mxCell id="ee3Hf3BzdbRgXfLqMHV_-32" value="Get the latest defined version for each report" style="rounded=0;whiteSpace=wrap;html=1;" parent="1" vertex="1">
          <mxGeometry x="608" y="50" width="120" height="60" as="geometry" />
        </mxCell>
        <mxCell id="06SwiOH1XrLOU_39ar2P-36" style="edgeStyle=orthogonalEdgeStyle;rounded=0;orthogonalLoop=1;jettySize=auto;html=1;exitX=1;exitY=0.5;exitDx=0;exitDy=0;entryX=0;entryY=0.5;entryDx=0;entryDy=0;" edge="1" parent="1" source="oFhDvv9RlIDCHvoSyQMo-2" target="ee3Hf3BzdbRgXfLqMHV_-36">
          <mxGeometry relative="1" as="geometry" />
        </mxCell>
        <mxCell id="06SwiOH1XrLOU_39ar2P-37" value="No" style="edgeLabel;html=1;align=center;verticalAlign=middle;resizable=0;points=[];" vertex="1" connectable="0" parent="06SwiOH1XrLOU_39ar2P-36">
          <mxGeometry x="-0.9078" y="-2" relative="1" as="geometry">
            <mxPoint as="offset" />
          </mxGeometry>
        </mxCell>
        <mxCell id="oFhDvv9RlIDCHvoSyQMo-2" value="if the local table indicate the version of this season is &quot;NDF&quot; (No Data Found)" style="rhombus;whiteSpace=wrap;html=1;" parent="1" vertex="1">
          <mxGeometry x="440" y="540" width="190" height="80" as="geometry" />
        </mxCell>
        <mxCell id="oFhDvv9RlIDCHvoSyQMo-24" style="edgeStyle=orthogonalEdgeStyle;rounded=0;orthogonalLoop=1;jettySize=auto;html=1;exitX=0.5;exitY=1;exitDx=0;exitDy=0;entryX=0.5;entryY=0;entryDx=0;entryDy=0;" parent="1" source="06SwiOH1XrLOU_39ar2P-23" target="oFhDvv9RlIDCHvoSyQMo-23" edge="1">
          <mxGeometry relative="1" as="geometry">
            <mxPoint x="627.5" y="600" as="sourcePoint" />
          </mxGeometry>
        </mxCell>
        <mxCell id="oFhDvv9RlIDCHvoSyQMo-26" style="edgeStyle=orthogonalEdgeStyle;rounded=0;orthogonalLoop=1;jettySize=auto;html=1;exitX=0.5;exitY=1;exitDx=0;exitDy=0;entryX=0;entryY=0.5;entryDx=0;entryDy=0;" parent="1" source="oFhDvv9RlIDCHvoSyQMo-2" target="ee3Hf3BzdbRgXfLqMHV_-14" edge="1">
          <mxGeometry relative="1" as="geometry">
            <mxPoint x="472.5" y="720" as="sourcePoint" />
            <Array as="points">
              <mxPoint x="535" y="740" />
              <mxPoint x="80" y="740" />
              <mxPoint x="80" y="180" />
            </Array>
          </mxGeometry>
        </mxCell>
        <mxCell id="06SwiOH1XrLOU_39ar2P-33" value="Yes" style="edgeLabel;html=1;align=center;verticalAlign=middle;resizable=0;points=[];" vertex="1" connectable="0" parent="oFhDvv9RlIDCHvoSyQMo-26">
          <mxGeometry x="-0.9627" y="-1" relative="1" as="geometry">
            <mxPoint as="offset" />
          </mxGeometry>
        </mxCell>
        <mxCell id="06SwiOH1XrLOU_39ar2P-34" style="edgeStyle=orthogonalEdgeStyle;rounded=0;orthogonalLoop=1;jettySize=auto;html=1;exitX=0.5;exitY=1;exitDx=0;exitDy=0;entryX=0;entryY=0.5;entryDx=0;entryDy=0;" edge="1" parent="1" source="oFhDvv9RlIDCHvoSyQMo-23" target="ee3Hf3BzdbRgXfLqMHV_-14">
          <mxGeometry relative="1" as="geometry">
            <Array as="points">
              <mxPoint x="805" y="740" />
              <mxPoint x="80" y="740" />
              <mxPoint x="80" y="180" />
            </Array>
          </mxGeometry>
        </mxCell>
        <mxCell id="06SwiOH1XrLOU_39ar2P-35" value="Yes" style="edgeLabel;html=1;align=center;verticalAlign=middle;resizable=0;points=[];" vertex="1" connectable="0" parent="06SwiOH1XrLOU_39ar2P-34">
          <mxGeometry x="-0.9676" y="1" relative="1" as="geometry">
            <mxPoint as="offset" />
          </mxGeometry>
        </mxCell>
        <mxCell id="06SwiOH1XrLOU_39ar2P-38" style="edgeStyle=orthogonalEdgeStyle;rounded=0;orthogonalLoop=1;jettySize=auto;html=1;exitX=1;exitY=0.5;exitDx=0;exitDy=0;entryX=0.5;entryY=0;entryDx=0;entryDy=0;" edge="1" parent="1" source="oFhDvv9RlIDCHvoSyQMo-23" target="06SwiOH1XrLOU_39ar2P-26">
          <mxGeometry relative="1" as="geometry">
            <Array as="points">
              <mxPoint x="960" y="580" />
              <mxPoint x="960" y="200" />
              <mxPoint x="535" y="200" />
            </Array>
          </mxGeometry>
        </mxCell>
        <mxCell id="06SwiOH1XrLOU_39ar2P-39" value="No" style="edgeLabel;html=1;align=center;verticalAlign=middle;resizable=0;points=[];" vertex="1" connectable="0" parent="06SwiOH1XrLOU_39ar2P-38">
          <mxGeometry x="-0.9749" y="-1" relative="1" as="geometry">
            <mxPoint as="offset" />
          </mxGeometry>
        </mxCell>
        <mxCell id="oFhDvv9RlIDCHvoSyQMo-23" value="if the local table indicate the version of this season is &quot;NDF&quot; (No Data Found)" style="rhombus;whiteSpace=wrap;html=1;" parent="1" vertex="1">
          <mxGeometry x="710" y="540" width="190" height="80" as="geometry" />
        </mxCell>
        <mxCell id="06SwiOH1XrLOU_39ar2P-1" value="End" style="ellipse;whiteSpace=wrap;html=1;aspect=fixed;" vertex="1" parent="1">
          <mxGeometry x="40" y="55" width="50" height="50" as="geometry" />
        </mxCell>
        <mxCell id="06SwiOH1XrLOU_39ar2P-30" style="edgeStyle=orthogonalEdgeStyle;rounded=0;orthogonalLoop=1;jettySize=auto;html=1;exitX=0.5;exitY=1;exitDx=0;exitDy=0;entryX=0.5;entryY=0;entryDx=0;entryDy=0;" edge="1" parent="1" source="06SwiOH1XrLOU_39ar2P-2" target="06SwiOH1XrLOU_39ar2P-19">
          <mxGeometry relative="1" as="geometry" />
        </mxCell>
        <mxCell id="06SwiOH1XrLOU_39ar2P-2" value="Access the company-specific report version table from the database (contains version details for each financial report by season)" style="rounded=0;whiteSpace=wrap;html=1;" vertex="1" parent="1">
          <mxGeometry x="120" y="350" width="220" height="80" as="geometry" />
        </mxCell>
        <mxCell id="06SwiOH1XrLOU_39ar2P-7" style="edgeStyle=orthogonalEdgeStyle;rounded=0;orthogonalLoop=1;jettySize=auto;html=1;exitX=0;exitY=0.5;exitDx=0;exitDy=0;entryX=1;entryY=0.5;entryDx=0;entryDy=0;" edge="1" parent="1" source="06SwiOH1XrLOU_39ar2P-4" target="06SwiOH1XrLOU_39ar2P-5">
          <mxGeometry relative="1" as="geometry" />
        </mxCell>
        <mxCell id="06SwiOH1XrLOU_39ar2P-4" value="for each company" style="rounded=0;whiteSpace=wrap;html=1;" vertex="1" parent="1">
          <mxGeometry x="370" y="50" width="120" height="60" as="geometry" />
        </mxCell>
        <mxCell id="06SwiOH1XrLOU_39ar2P-8" style="edgeStyle=orthogonalEdgeStyle;rounded=0;orthogonalLoop=1;jettySize=auto;html=1;exitX=0;exitY=0.5;exitDx=0;exitDy=0;entryX=1;entryY=0.5;entryDx=0;entryDy=0;" edge="1" parent="1" source="06SwiOH1XrLOU_39ar2P-5" target="06SwiOH1XrLOU_39ar2P-1">
          <mxGeometry relative="1" as="geometry" />
        </mxCell>
        <mxCell id="06SwiOH1XrLOU_39ar2P-9" value="No" style="edgeLabel;html=1;align=center;verticalAlign=middle;resizable=0;points=[];" vertex="1" connectable="0" parent="06SwiOH1XrLOU_39ar2P-8">
          <mxGeometry x="-0.7667" y="2" relative="1" as="geometry">
            <mxPoint x="-1" as="offset" />
          </mxGeometry>
        </mxCell>
        <mxCell id="06SwiOH1XrLOU_39ar2P-10" style="edgeStyle=orthogonalEdgeStyle;rounded=0;orthogonalLoop=1;jettySize=auto;html=1;exitX=0.5;exitY=1;exitDx=0;exitDy=0;entryX=0.5;entryY=0;entryDx=0;entryDy=0;" edge="1" parent="1" source="06SwiOH1XrLOU_39ar2P-5" target="ee3Hf3BzdbRgXfLqMHV_-14">
          <mxGeometry relative="1" as="geometry" />
        </mxCell>
        <mxCell id="06SwiOH1XrLOU_39ar2P-11" value="Yes" style="edgeLabel;html=1;align=center;verticalAlign=middle;resizable=0;points=[];" vertex="1" connectable="0" parent="06SwiOH1XrLOU_39ar2P-10">
          <mxGeometry x="-0.3071" y="2" relative="1" as="geometry">
            <mxPoint as="offset" />
          </mxGeometry>
        </mxCell>
        <mxCell id="06SwiOH1XrLOU_39ar2P-5" value="if still have company" style="rhombus;whiteSpace=wrap;html=1;" vertex="1" parent="1">
          <mxGeometry x="185" y="40" width="90" height="80" as="geometry" />
        </mxCell>
        <mxCell id="oFhDvv9RlIDCHvoSyQMo-5" style="edgeStyle=orthogonalEdgeStyle;rounded=0;orthogonalLoop=1;jettySize=auto;html=1;exitX=0.5;exitY=1;exitDx=0;exitDy=0;entryX=0.5;entryY=0;entryDx=0;entryDy=0;" parent="1" source="ee3Hf3BzdbRgXfLqMHV_-8" target="06SwiOH1XrLOU_39ar2P-23" edge="1">
          <mxGeometry relative="1" as="geometry">
            <mxPoint x="539" y="410" as="targetPoint" />
          </mxGeometry>
        </mxCell>
        <mxCell id="ee3Hf3BzdbRgXfLqMHV_-8" value="Attempt to retrieve the financial report of this season" style="rounded=0;whiteSpace=wrap;html=1;" parent="1" vertex="1">
          <mxGeometry x="745" y="350" width="120" height="60" as="geometry" />
        </mxCell>
        <mxCell id="oFhDvv9RlIDCHvoSyQMo-6" style="edgeStyle=orthogonalEdgeStyle;rounded=0;orthogonalLoop=1;jettySize=auto;html=1;exitX=0.5;exitY=1;exitDx=0;exitDy=0;entryX=0.5;entryY=0;entryDx=0;entryDy=0;" parent="1" source="ee3Hf3BzdbRgXfLqMHV_-36" target="ee3Hf3BzdbRgXfLqMHV_-8" edge="1">
          <mxGeometry relative="1" as="geometry" />
        </mxCell>
        <mxCell id="oFhDvv9RlIDCHvoSyQMo-10" value="No" style="edgeLabel;html=1;align=center;verticalAlign=middle;resizable=0;points=[];" parent="oFhDvv9RlIDCHvoSyQMo-6" vertex="1" connectable="0">
          <mxGeometry x="-0.3188" y="-1" relative="1" as="geometry">
            <mxPoint as="offset" />
          </mxGeometry>
        </mxCell>
        <mxCell id="06SwiOH1XrLOU_39ar2P-40" style="edgeStyle=orthogonalEdgeStyle;rounded=0;orthogonalLoop=1;jettySize=auto;html=1;exitX=0.5;exitY=0;exitDx=0;exitDy=0;entryX=0.5;entryY=0;entryDx=0;entryDy=0;" edge="1" parent="1" source="ee3Hf3BzdbRgXfLqMHV_-36" target="06SwiOH1XrLOU_39ar2P-26">
          <mxGeometry relative="1" as="geometry">
            <Array as="points">
              <mxPoint x="805" y="200" />
              <mxPoint x="535" y="200" />
            </Array>
          </mxGeometry>
        </mxCell>
        <mxCell id="06SwiOH1XrLOU_39ar2P-41" value="Yes" style="edgeLabel;html=1;align=center;verticalAlign=middle;resizable=0;points=[];" vertex="1" connectable="0" parent="06SwiOH1XrLOU_39ar2P-40">
          <mxGeometry x="-0.9328" y="-1" relative="1" as="geometry">
            <mxPoint as="offset" />
          </mxGeometry>
        </mxCell>
        <mxCell id="ee3Hf3BzdbRgXfLqMHV_-36" value="if the version of financial report for this season in the table is euqal to the latest defined version" style="rhombus;whiteSpace=wrap;html=1;" parent="1" vertex="1">
          <mxGeometry x="690" y="240" width="230" height="80" as="geometry" />
        </mxCell>
        <mxCell id="06SwiOH1XrLOU_39ar2P-15" style="edgeStyle=orthogonalEdgeStyle;rounded=0;orthogonalLoop=1;jettySize=auto;html=1;exitX=0.5;exitY=1;exitDx=0;exitDy=0;entryX=0.5;entryY=0;entryDx=0;entryDy=0;" edge="1" parent="1" source="06SwiOH1XrLOU_39ar2P-16" target="06SwiOH1XrLOU_39ar2P-21">
          <mxGeometry relative="1" as="geometry" />
        </mxCell>
        <mxCell id="06SwiOH1XrLOU_39ar2P-16" value="Attempt to retrieve the financial report of previous season" style="rounded=0;whiteSpace=wrap;html=1;" vertex="1" parent="1">
          <mxGeometry x="170" y="570" width="120" height="60" as="geometry" />
        </mxCell>
        <mxCell id="06SwiOH1XrLOU_39ar2P-17" style="edgeStyle=orthogonalEdgeStyle;rounded=0;orthogonalLoop=1;jettySize=auto;html=1;exitX=0.5;exitY=1;exitDx=0;exitDy=0;entryX=0.5;entryY=0;entryDx=0;entryDy=0;" edge="1" parent="1" source="06SwiOH1XrLOU_39ar2P-19" target="06SwiOH1XrLOU_39ar2P-16">
          <mxGeometry relative="1" as="geometry" />
        </mxCell>
        <mxCell id="06SwiOH1XrLOU_39ar2P-18" value="No" style="edgeLabel;html=1;align=center;verticalAlign=middle;resizable=0;points=[];" vertex="1" connectable="0" parent="06SwiOH1XrLOU_39ar2P-17">
          <mxGeometry x="-0.3188" y="-1" relative="1" as="geometry">
            <mxPoint as="offset" />
          </mxGeometry>
        </mxCell>
        <mxCell id="06SwiOH1XrLOU_39ar2P-29" style="edgeStyle=orthogonalEdgeStyle;rounded=0;orthogonalLoop=1;jettySize=auto;html=1;exitX=1;exitY=0.5;exitDx=0;exitDy=0;entryX=0;entryY=0.5;entryDx=0;entryDy=0;" edge="1" parent="1" source="06SwiOH1XrLOU_39ar2P-19" target="06SwiOH1XrLOU_39ar2P-26">
          <mxGeometry relative="1" as="geometry">
            <Array as="points">
              <mxPoint x="400" y="500" />
              <mxPoint x="400" y="450" />
            </Array>
          </mxGeometry>
        </mxCell>
        <mxCell id="06SwiOH1XrLOU_39ar2P-31" value="Yes" style="edgeLabel;html=1;align=center;verticalAlign=middle;resizable=0;points=[];" vertex="1" connectable="0" parent="06SwiOH1XrLOU_39ar2P-29">
          <mxGeometry x="-0.8489" relative="1" as="geometry">
            <mxPoint as="offset" />
          </mxGeometry>
        </mxCell>
        <mxCell id="06SwiOH1XrLOU_39ar2P-19" value="if the version of financial report for previous season in the table is euqal to the latest defined version" style="rhombus;whiteSpace=wrap;html=1;" vertex="1" parent="1">
          <mxGeometry x="115" y="460" width="230" height="80" as="geometry" />
        </mxCell>
        <mxCell id="06SwiOH1XrLOU_39ar2P-28" style="edgeStyle=orthogonalEdgeStyle;rounded=0;orthogonalLoop=1;jettySize=auto;html=1;exitX=1;exitY=0.5;exitDx=0;exitDy=0;entryX=0;entryY=0.5;entryDx=0;entryDy=0;" edge="1" parent="1" source="06SwiOH1XrLOU_39ar2P-21" target="06SwiOH1XrLOU_39ar2P-26">
          <mxGeometry relative="1" as="geometry">
            <Array as="points">
              <mxPoint x="400" y="680" />
              <mxPoint x="400" y="450" />
            </Array>
          </mxGeometry>
        </mxCell>
        <mxCell id="06SwiOH1XrLOU_39ar2P-21" value="Save to Database" style="rounded=0;whiteSpace=wrap;html=1;" vertex="1" parent="1">
          <mxGeometry x="170" y="650" width="120" height="60" as="geometry" />
        </mxCell>
        <mxCell id="06SwiOH1XrLOU_39ar2P-23" value="Save to Database" style="rounded=0;whiteSpace=wrap;html=1;" vertex="1" parent="1">
          <mxGeometry x="745" y="450" width="120" height="60" as="geometry" />
        </mxCell>
        <mxCell id="06SwiOH1XrLOU_39ar2P-32" style="edgeStyle=orthogonalEdgeStyle;rounded=0;orthogonalLoop=1;jettySize=auto;html=1;exitX=0.5;exitY=1;exitDx=0;exitDy=0;entryX=0.5;entryY=0;entryDx=0;entryDy=0;" edge="1" parent="1" source="06SwiOH1XrLOU_39ar2P-26" target="oFhDvv9RlIDCHvoSyQMo-2">
          <mxGeometry relative="1" as="geometry" />
        </mxCell>
        <mxCell id="06SwiOH1XrLOU_39ar2P-26" value="for each season (go backward) from two season ago" style="rounded=0;whiteSpace=wrap;html=1;" vertex="1" parent="1">
          <mxGeometry x="475" y="420" width="120" height="60" as="geometry" />
        </mxCell>
      </root>
    </mxGraphModel>
  </diagram>
</mxfile>
